<svg width="16" height="16" viewBox="0 0 16 16" fill="none" xmlns="http://www.w3.org/2000/svg">
<path fill-rule="evenodd" clip-rule="evenodd" d="M11.6268 5.70202C12.0145 5.30871 12.01 4.67556 11.6166 4.28784C11.2233 3.90013 10.5902 3.90467 10.2025 4.29798L8.00146 6.53076L5.80045 4.29798C5.41274 3.90467 4.77959 3.90013 4.38627 4.28784C3.99296 4.67556 3.98843 5.30871 4.37614 5.70202L6.59727 7.95521L4.28784 10.298C3.90013 10.6913 3.90467 11.3244 4.29798 11.7122C4.69129 12.0999 5.32444 12.0953 5.71216 11.702L8.00146 9.37967L10.2908 11.702C10.6785 12.0953 11.3116 12.0999 11.7049 11.7122C12.0983 11.3244 12.1028 10.6913 11.7151 10.298L9.40565 7.95521L11.6268 5.70202Z" fill="#FF465D"/>
</svg>
